<?xml version="1.0" encoding="UTF-8"?><svg xmlns="http://www.w3.org/2000/svg" xmlns:xlink="http://www.w3.org/1999/xlink" width="375" zoomAndPan="magnify" viewBox="0 0 375 374.999991" height="374.999991" preserveAspectRatio="xMidYMid meet" version="1.0"><defs><clipPath id="clip-0"><path d="M 2 16 L 375 16 L 375 363.796875 L 2 363.796875 Z M 2 16 " clip-rule="nonzero"/></clipPath><clipPath id="clip-1"><path d="M 3 16 L 375 16 L 375 363.796875 L 3 363.796875 Z M 3 16 " clip-rule="nonzero"/></clipPath></defs><g clip-path="url(#clip-0)"><path fill="rgb(70.979309%, 77.648926%, 85.488892%)" d="M 355.800781 175.226562 C 362.238281 187.816406 357.992188 203.003906 353.746094 215.457031 C 348.949219 229.414062 343.058594 245.152344 333.882812 256.648438 C 326.074219 266.5 314.429688 265.40625 303.332031 262.941406 C 301.6875 262.667969 300.320312 262.257812 298.949219 261.984375 C 298.402344 261.847656 297.851562 261.710938 297.304688 261.574219 C 297.03125 261.4375 296.757812 261.4375 296.484375 261.300781 C 296.347656 261.300781 296.347656 261.300781 296.210938 261.164062 C 293.742188 268.964844 290.59375 276.628906 287.441406 283.878906 C 282.234375 296.332031 276.070312 308.375 268.261719 319.460938 C 261.277344 329.3125 252.785156 339.300781 242.917969 347.238281 C 242.78125 347.511719 242.507812 347.921875 242.234375 348.195312 C 242.097656 348.332031 241.6875 348.46875 241.550781 348.332031 C 233.46875 354.492188 224.5625 359.28125 214.835938 361.746094 C 214.289062 361.882812 213.605469 362.019531 212.917969 362.15625 C 212.507812 362.292969 212.234375 362.292969 211.824219 362.429688 C 211.6875 362.429688 211.550781 362.429688 211.414062 362.292969 C 209.355469 362.429688 207.164062 362.15625 204.5625 362.019531 C 204.289062 362.976562 203.464844 363.660156 202.234375 363.660156 C 188.671875 363.660156 175.65625 348.46875 181.410156 334.921875 C 183.601562 329.996094 190.453125 324.660156 196.070312 325.207031 C 197.300781 325.34375 198.535156 325.753906 199.632812 326.300781 C 202.78125 317.269531 208.535156 308.785156 212.371094 300.027344 C 214.835938 294.554688 216.890625 289.078125 218.945312 283.46875 C 220.863281 278.132812 224.152344 271.5625 224.015625 265.816406 C 223.054688 267.59375 220.316406 271.289062 216.207031 276.214844 C 208.125 289.355469 197.4375 299.753906 184.5625 308.511719 C 171.820312 317.269531 155.929688 324.796875 140.175781 319.460938 C 128.53125 315.492188 118.394531 302.492188 125.109375 290.175781 C 129.902344 281.417969 142.367188 279.363281 148.257812 286.753906 L 151.820312 283.195312 C 151.820312 280.871094 154.425781 277.859375 155.519531 276.351562 C 155.929688 275.804688 156.34375 275.257812 156.753906 274.710938 C 151.273438 275.257812 145.929688 275.667969 140.449219 275.804688 C 129.21875 276.078125 117.164062 275.667969 106.75 270.46875 C 105.929688 270.058594 105.792969 269.375 106.066406 268.691406 C 103.738281 268.144531 101.683594 267.730469 99.765625 267.59375 C 99.628906 267.871094 99.492188 268.144531 99.21875 268.417969 C 89.492188 278.679688 70.585938 266.636719 60.996094 261.984375 C 53.734375 258.425781 43.871094 255.417969 37.980469 249.667969 C 33.050781 244.742188 32.503906 237.625 28.804688 232.152344 C 28.53125 231.742188 28.941406 231.332031 29.351562 231.332031 C 28.117188 229.003906 27.296875 226.816406 27.980469 224.761719 C 28.257812 223.941406 28.394531 223.257812 28.394531 222.4375 C 26.203125 220.246094 24.144531 217.921875 22.089844 215.730469 C 17.160156 210.257812 12.503906 204.375 9.488281 197.53125 C 6.472656 190.824219 5.105469 183.847656 5.105469 176.59375 C 5.105469 166.605469 8.253906 157.300781 5.925781 147.308594 C 5.925781 147.035156 6.199219 147.035156 6.199219 147.171875 C 6.0625 143.339844 7.980469 140.332031 9.351562 138.003906 C -3.390625 123.910156 5.242188 100.644531 14.007812 86.550781 C 25.925781 67.390625 45.929688 57.675781 61.40625 42.078125 C 62.367188 41.117188 63.738281 41.800781 63.875 42.898438 C 66.339844 41.253906 69.214844 39.613281 71.820312 37.558594 C 73.324219 25.246094 96.203125 21.003906 105.246094 18.949219 C 119.492188 15.527344 136.890625 14.433594 148.257812 25.519531 C 150.175781 26.066406 152.507812 26.066406 154.5625 26.066406 C 154.011719 24.148438 154.972656 21.6875 157.574219 21.6875 C 174.699219 21.6875 191 27.570312 205.246094 36.738281 C 212.644531 41.527344 219.21875 47.277344 225.523438 53.433594 C 232.371094 60.140625 237.304688 68.078125 243.605469 75.191406 C 243.742188 75.328125 243.605469 75.601562 243.46875 75.601562 C 244.976562 77.519531 246.070312 79.433594 247.03125 81.078125 C 247.441406 81.488281 247.851562 81.761719 248.261719 82.171875 C 254.5625 53.707031 280.179688 32.222656 310.59375 32.222656 C 345.800781 32.222656 374.429688 60.824219 374.429688 95.992188 C 374.429688 116.792969 364.429688 135.265625 348.949219 146.898438 C 346.757812 152.507812 343.332031 157.300781 338.265625 160.582031 C 345.800781 162.773438 352.648438 169.203125 355.800781 175.226562 Z M 355.800781 175.226562 " fill-opacity="1" fill-rule="nonzero"/></g><path fill="rgb(43.919373%, 56.858826%, 69.799805%)" d="M 267.304688 124.046875 C 265.933594 120.214844 264.839844 116.246094 263.46875 112.414062 C 262.371094 107.761719 261.550781 103.109375 261.277344 98.457031 C 261.277344 98.046875 260.589844 97.910156 260.589844 98.320312 C 260.453125 98.730469 260.453125 99.277344 260.316406 99.824219 C 259.359375 95.855469 258.671875 91.886719 259.359375 87.507812 C 260.316406 81.898438 262.648438 76.011719 265.25 71.085938 C 265.523438 70.402344 264.703125 69.855469 264.289062 70.539062 C 260.042969 76.425781 255.796875 81.488281 254.699219 88.875 C 254.5625 89.425781 254.5625 90.109375 254.5625 90.65625 C 253.742188 89.152344 252.921875 87.644531 252.097656 86.277344 C 254.015625 74.917969 259.085938 64.519531 266.480469 56.308594 C 285.796875 54.117188 307.304688 54.253906 325.9375 60.277344 C 326.347656 60.414062 326.757812 60.550781 327.167969 60.6875 C 331.003906 86.550781 334.019531 141.425781 294.292969 153.195312 C 287.441406 151.140625 281.140625 147.992188 275.523438 143.886719 C 274.703125 142.65625 273.605469 141.699219 273.058594 140.742188 C 272.511719 139.917969 271.824219 139.097656 271.277344 138.277344 C 275.25 141.425781 280.042969 143.613281 284.703125 145.121094 C 285.796875 145.53125 286.621094 143.75 285.523438 143.203125 C 277.304688 138.6875 270.316406 132.667969 267.304688 124.046875 Z M 217.441406 251.585938 C 213.191406 255.003906 208.945312 258.289062 204.152344 261.027344 C 194.699219 266.5 184.289062 269.921875 173.601562 271.972656 C 171 272.523438 168.398438 272.933594 165.792969 273.34375 C 164.289062 275.804688 161 277.722656 158.945312 279.5 C 157.4375 280.734375 154.5625 284.015625 152.507812 283.878906 C 152.507812 283.878906 152.371094 283.878906 152.371094 283.742188 C 152.230469 283.46875 152.230469 283.195312 152.230469 282.921875 L 148.671875 286.480469 C 149.628906 287.710938 150.453125 289.078125 151 290.722656 C 151.820312 293.183594 147.984375 294.691406 146.890625 292.5 C 143.054688 284.5625 133.191406 285.386719 129.902344 293.046875 C 132.367188 291.269531 135.109375 290.039062 137.847656 289.902344 C 145.792969 289.628906 145.109375 297.425781 151.683594 299.070312 C 158.261719 300.710938 171.683594 286.207031 171.136719 279.636719 C 170.453125 273.070312 179.355469 273.753906 187.851562 276.628906 C 196.34375 279.636719 189.769531 269.101562 197.4375 269.101562 C 205.109375 269.101562 202.371094 267.730469 212.917969 261.574219 C 220.589844 257.058594 235.386719 255.417969 244.425781 253.5 C 236.753906 251.722656 228.945312 250.488281 221.277344 248.710938 C 219.632812 249.804688 218.535156 250.625 217.441406 251.585938 Z M 198.671875 135.953125 C 199.082031 138.960938 200.042969 142.519531 202.371094 144.710938 C 203.328125 145.667969 204.5625 146.351562 205.933594 146.898438 C 205.382812 144.4375 206.207031 142.929688 208.125 141.425781 C 208.398438 141.289062 208.535156 141.5625 208.398438 141.699219 C 206.890625 143.476562 207.300781 144.984375 208.261719 146.898438 C 208.398438 147.171875 208.535156 147.445312 208.671875 147.582031 C 209.21875 143.203125 212.644531 139.371094 216.753906 138.003906 C 217.300781 137.867188 217.578125 138.6875 217.164062 138.824219 C 211.960938 141.015625 210.316406 147.445312 212.371094 152.371094 C 219.21875 160.992188 227.578125 169.203125 235.386719 176.59375 C 241.550781 182.476562 249.222656 190.550781 257.441406 195.339844 C 263.46875 196.4375 269.085938 197.667969 274.703125 194.109375 C 274.839844 193.972656 275.113281 194.109375 274.976562 194.382812 C 273.878906 196.984375 271.003906 198.625 267.714844 199.308594 C 268.125 199.308594 268.398438 199.445312 268.675781 199.722656 C 273.878906 199.445312 279.222656 198.214844 284.015625 196.574219 C 284.839844 196.300781 285.113281 197.394531 284.566406 197.804688 C 277.851562 202.867188 262.507812 208.34375 254.5625 202.320312 C 254.976562 203.277344 255.25 204.238281 255.660156 205.195312 C 256.617188 207.246094 257.578125 209.164062 259.359375 210.53125 C 259.769531 210.804688 259.496094 211.625 258.949219 211.351562 C 256.617188 210.53125 254.289062 209.847656 252.371094 208.203125 C 252.234375 208.066406 252.097656 207.929688 251.960938 207.929688 C 250.589844 211.078125 248.808594 214.089844 247.304688 216.828125 C 246.34375 218.46875 245.25 220.246094 244.152344 221.890625 C 248.671875 222.027344 254.015625 224.214844 257.578125 225.449219 C 265.113281 228.183594 271.824219 231.742188 278.539062 236.257812 C 278.8125 236.394531 278.539062 236.804688 278.261719 236.667969 C 267.304688 230.648438 253.742188 226.269531 241.140625 225.859375 C 239.359375 228.046875 237.441406 229.964844 235.25 231.605469 C 234.835938 231.878906 234.289062 231.605469 234.152344 231.332031 C 232.917969 233.109375 231.277344 235.027344 229.496094 236.941406 C 231.414062 237.625 232.644531 239.816406 230.726562 241.457031 C 229.496094 242.554688 228.125 243.648438 226.753906 244.605469 C 234.835938 245.972656 242.917969 248.164062 251.003906 251.039062 C 254.152344 247.34375 235.933594 238.996094 246.617188 235.027344 C 257.441406 231.058594 280.867188 245.835938 284.152344 239.679688 C 287.441406 233.382812 276.621094 229.828125 269.085938 220.929688 C 261.550781 212.035156 263.195312 210.121094 273.332031 207.792969 C 283.46875 205.46875 299.90625 194.382812 292.097656 192.332031 C 284.152344 190.414062 284.152344 192.605469 286.894531 186.445312 C 289.632812 180.289062 266.480469 191.648438 252.371094 183.164062 C 238.261719 174.679688 215.933594 153.878906 216.890625 147.992188 C 217.851562 142.109375 224.152344 136.5 217.851562 135.539062 C 211.550781 134.582031 207.714844 139.507812 203.742188 136.226562 C 201.960938 134.71875 202.234375 130.886719 202.917969 127.191406 C 198.945312 128.425781 198.261719 132.257812 198.671875 135.953125 Z M 311.964844 247.890625 C 304.015625 245.5625 315.113281 226.542969 315.9375 218.195312 C 312.785156 223.257812 309.632812 228.183594 305.933594 232.835938 C 304.703125 234.34375 302.921875 233.382812 302.375 232.015625 C 300.457031 235.027344 298.675781 238.175781 297.441406 241.320312 C 298.8125 241.183594 300.457031 242.140625 300.320312 243.785156 C 299.769531 248.164062 298.949219 252.40625 297.714844 256.785156 C 297.988281 256.785156 298.402344 256.785156 298.675781 256.921875 C 303.46875 258.289062 308.8125 259.796875 313.882812 260.480469 C 314.019531 260.070312 314.429688 259.796875 314.976562 259.523438 C 320.183594 258.015625 323.882812 249.804688 326.347656 245.289062 C 326.757812 244.46875 327.167969 243.785156 327.578125 242.964844 C 323.46875 245.972656 317.441406 249.53125 311.964844 247.890625 Z M 332.648438 239.269531 C 329.910156 245.835938 325.800781 256.101562 319.496094 260.617188 C 326.347656 260.34375 330.457031 255.417969 333.882812 249.804688 C 336.210938 245.835938 338.539062 241.730469 340.457031 237.488281 C 337.992188 238.996094 334.292969 240.773438 332.648438 239.269531 Z M 350.320312 175.910156 C 351.417969 176.59375 352.375 177.550781 353.335938 178.371094 C 351.277344 173.308594 347.582031 168.929688 342.921875 165.921875 C 342.375 165.507812 341.691406 165.234375 341.140625 164.960938 C 342.785156 166.878906 344.15625 169.066406 345.386719 170.984375 C 346.347656 172.488281 346.894531 173.992188 347.445312 175.363281 C 348.128906 175.089844 349.085938 175.089844 350.320312 175.910156 Z M 331.414062 171.667969 C 335.523438 168.792969 341.277344 172.898438 344.019531 175.363281 C 341.964844 171.121094 337.582031 164.277344 332.511719 163.457031 C 329.222656 164.824219 325.523438 166.058594 321.828125 166.46875 C 324.429688 169.066406 326.621094 172.214844 327.992188 175.636719 C 328.675781 174.269531 329.636719 172.898438 331.414062 171.667969 Z M 321.140625 174.542969 C 322.375 174.679688 323.46875 175.5 324.429688 176.320312 C 322.785156 173.308594 320.320312 170.710938 317.441406 168.519531 C 317.992188 170.710938 318.265625 173.035156 318.265625 175.363281 C 318.949219 174.816406 319.910156 174.40625 321.140625 174.542969 Z M 87.847656 103.65625 C 92.777344 100.507812 97.710938 97.773438 100.722656 92.433594 C 103.875 86.6875 104.285156 78.886719 101.273438 73.003906 C 96.613281 63.699219 83.738281 62.601562 73.875 61.507812 C 79.351562 62.464844 90.039062 66.160156 93.050781 79.160156 C 97.300781 96.949219 57.847656 108.445312 47.160156 105.023438 C 39.078125 102.425781 37.296875 90.929688 36.886719 85.730469 C 35.105469 91.066406 34.96875 96.8125 36.613281 102.425781 C 40.722656 115.835938 53.1875 113.917969 64.285156 113.234375 C 64.695312 113.234375 64.96875 113.371094 65.242188 113.507812 C 66.476562 113.234375 67.710938 112.960938 68.941406 112.6875 C 68.941406 112.414062 69.078125 112.277344 69.351562 112.140625 C 69.902344 111.867188 70.3125 111.457031 70.859375 111.046875 C 71.269531 110.773438 71.957031 110.636719 72.367188 110.5 C 73.601562 110.085938 74.695312 109.675781 75.792969 110.363281 C 75.929688 110.5 76.066406 110.636719 76.203125 110.773438 C 81.269531 109.265625 85.792969 107.761719 89.765625 105.984375 C 89.355469 106.121094 88.804688 106.121094 88.394531 106.121094 C 87.160156 106.257812 86.886719 104.339844 87.847656 103.65625 Z M 78.394531 217.375 C 81.957031 207.929688 73.1875 200.953125 64.832031 198.898438 C 64.011719 198.761719 63.460938 199.996094 64.285156 200.269531 C 69.902344 202.730469 74.96875 205.195312 76.066406 212.035156 C 76.613281 215.59375 75.65625 219.152344 73.324219 221.753906 C 70.996094 224.351562 63.875 229.140625 60.449219 225.171875 C 60.3125 224.898438 60.039062 224.898438 59.765625 224.761719 C 66.339844 231.46875 75.378906 225.171875 78.394531 217.375 Z M 53.460938 165.234375 C 52.914062 166.058594 52.230469 166.742188 51.679688 167.425781 C 51.269531 168.109375 51.132812 168.792969 50.996094 169.75 C 50.996094 171.941406 52.914062 175.363281 55.105469 176.046875 C 57.023438 176.59375 60.449219 175.5 62.09375 174.542969 C 63.050781 173.992188 63.875 173.308594 64.558594 172.488281 C 64.285156 171.941406 63.738281 171.394531 63.050781 171.667969 C 60.585938 172.625 56.339844 175.636719 54.148438 172.761719 C 53.050781 171.394531 53.460938 169.066406 54.285156 167.699219 C 54.832031 166.742188 55.378906 166.332031 55.242188 165.234375 C 55.105469 164.6875 54.695312 164.6875 54.285156 164.824219 C 53.875 164.824219 53.734375 164.960938 53.460938 165.234375 Z M 124.835938 188.636719 C 121.957031 188.363281 118.394531 185.625 117.4375 182.890625 C 117.4375 182.753906 117.027344 182.753906 117.164062 183.027344 C 117.710938 186.035156 118.394531 188.773438 120.449219 190.550781 C 120.585938 190.550781 120.863281 190.550781 121 190.550781 C 128.53125 191.097656 135.792969 190.414062 137.164062 181.519531 C 137.710938 177.824219 137.710938 173.992188 134.148438 171.667969 C 131.820312 170.300781 127.710938 168.382812 124.835938 169.339844 C 124.835938 170.027344 125.109375 170.710938 125.929688 170.847656 C 132.644531 172.078125 136.617188 178.097656 132.503906 184.121094 C 130.726562 186.582031 128.394531 188.910156 124.835938 188.636719 Z M 135.246094 245.289062 C 137.4375 244.742188 139.21875 243.101562 140.449219 241.320312 C 142.78125 238.035156 143.328125 233.246094 140.863281 230.101562 C 140.589844 229.828125 140.175781 229.691406 139.765625 229.554688 C 139.492188 229.414062 139.21875 229.828125 139.355469 230.101562 C 140.726562 232.835938 140.3125 238.3125 137.574219 240.226562 C 136.753906 240.910156 135.519531 241.183594 134.5625 241.59375 C 133.191406 242.277344 131.410156 243.238281 129.765625 242.828125 C 129.355469 242.691406 128.671875 243.101562 128.808594 243.648438 C 128.808594 243.648438 128.808594 243.648438 128.808594 243.785156 C 131 244.878906 132.644531 245.972656 135.246094 245.289062 Z M 160.039062 255.417969 C 160.179688 256.375 159.492188 256.921875 158.671875 257.058594 C 159.628906 258.425781 161.136719 259.660156 163.328125 260.617188 C 164.011719 260.890625 164.289062 259.933594 164.011719 259.523438 C 156.203125 249.53125 170.863281 241.320312 178.808594 239.40625 C 187.300781 237.488281 196.34375 238.585938 204.152344 242.277344 C 204.289062 242.277344 204.425781 242.140625 204.289062 242.003906 C 202.371094 239.816406 200.042969 238.175781 197.714844 236.941406 C 182.234375 232.5625 158.121094 236.667969 160.039062 255.417969 Z M 193.601562 180.835938 C 199.355469 186.855469 208.125 186.308594 214.972656 182.753906 C 215.660156 182.476562 216.207031 182.476562 216.753906 182.890625 C 217.851562 181.792969 218.671875 180.5625 219.21875 179.058594 C 219.769531 177.414062 217.714844 176.59375 216.617188 177.550781 C 212.234375 181.109375 208.945312 181.519531 203.605469 180.152344 C 200.179688 179.332031 197.027344 178.097656 194.5625 175.5 C 188.125 168.792969 192.917969 160.855469 199.082031 156.203125 C 199.21875 156.066406 199.21875 155.792969 198.945312 155.792969 C 196.480469 156.066406 194.425781 157.023438 192.78125 158.257812 C 188.261719 165.097656 188.261719 175.226562 193.601562 180.835938 Z M 176.890625 68.761719 C 181.136719 62.054688 175.382812 53.980469 169.765625 50.699219 C 166.34375 48.644531 162.371094 47.6875 158.398438 47.960938 C 156.34375 48.371094 154.148438 49.191406 152.09375 50.011719 C 151.410156 50.285156 151.410156 51.382812 152.230469 51.382812 C 160.863281 51.246094 172.234375 51.792969 173.054688 63.285156 C 173.601562 70.128906 167.300781 70.949219 162.09375 71.222656 C 157.164062 71.496094 153.191406 70.539062 149.082031 67.667969 C 147.710938 66.84375 146.339844 68.078125 146.203125 69.308594 C 146.339844 69.445312 146.480469 69.445312 146.617188 69.582031 C 154.699219 75.738281 170.179688 79.296875 176.890625 68.761719 Z M 176.890625 68.761719 " fill-opacity="1" fill-rule="nonzero"/><path fill="rgb(100%, 100%, 100%)" d="M 268.398438 53.980469 C 269.222656 53.160156 269.90625 52.476562 270.730469 51.792969 C 278.125 48.507812 290.867188 45.222656 298.539062 48.234375 C 299.085938 48.371094 299.222656 47.550781 298.8125 47.414062 C 293.332031 45.085938 287.851562 45.359375 282.097656 46.042969 C 280.867188 46.179688 279.222656 46.320312 277.714844 46.457031 C 287.167969 40.160156 298.539062 36.464844 310.867188 36.464844 C 333.195312 36.464844 352.785156 48.78125 363.058594 67.117188 C 357.445312 62.191406 349.773438 59.183594 343.195312 56.582031 C 342.785156 56.445312 342.648438 56.992188 342.921875 57.265625 C 348.539062 59.867188 354.292969 63.011719 358.949219 67.117188 C 362.785156 70.539062 364.976562 75.054688 368.128906 79.023438 C 368.675781 80.667969 369.089844 82.445312 369.5 84.222656 C 361.144531 71.910156 345.664062 63.5625 332.785156 58.222656 C 322.375 53.980469 311.003906 52.476562 299.90625 52.066406 C 289.359375 51.519531 278.539062 51.519531 268.398438 53.980469 Z M 214.835938 361.746094 C 214.289062 361.882812 213.605469 362.019531 212.917969 362.15625 C 213.605469 362.019531 214.289062 361.882812 214.835938 361.746094 Z M 303.195312 263.078125 C 301.6875 262.804688 300.320312 262.394531 298.8125 262.121094 C 300.183594 262.394531 301.550781 262.667969 303.195312 263.078125 Z M 152.09375 283.058594 L 148.535156 286.617188 Z M 296.210938 261.164062 C 296.347656 261.164062 296.347656 261.164062 296.484375 261.300781 C 296.484375 261.300781 296.347656 261.164062 296.210938 261.164062 C 296.347656 261.164062 296.347656 261.164062 296.210938 261.164062 Z M 211.550781 361.332031 C 221.550781 355.175781 231 348.742188 239.632812 341.492188 C 239.359375 340.945312 239.222656 340.398438 238.808594 339.984375 C 237.167969 337.113281 234.289062 334.238281 231.824219 332.1875 C 231.6875 332.050781 231.824219 331.773438 232.097656 331.914062 C 235.660156 334.375 238.808594 336.15625 241.277344 339.710938 C 241.277344 339.847656 241.414062 339.847656 241.414062 339.984375 C 247.578125 334.648438 253.332031 328.765625 258.398438 322.195312 C 252.097656 313.574219 243.742188 306.183594 233.878906 302.082031 C 233.332031 301.804688 233.605469 300.984375 234.152344 301.257812 C 244.835938 304.816406 253.878906 310.703125 260.453125 319.597656 C 261.824219 317.679688 263.195312 315.765625 264.5625 313.847656 C 267.304688 309.742188 269.769531 305.636719 272.097656 301.257812 C 262.921875 292.363281 251.960938 285.660156 239.359375 282.511719 C 238.945312 282.375 239.085938 281.828125 239.496094 281.828125 C 252.507812 283.332031 264.5625 288.53125 274.015625 297.699219 C 277.441406 291.269531 280.316406 284.5625 283.058594 277.722656 C 287.578125 266.089844 290.320312 253.636719 295.660156 242.417969 C 296.070312 241.730469 296.757812 241.320312 297.441406 241.183594 C 298.8125 238.175781 300.457031 235.027344 302.375 231.878906 C 302.101562 231.332031 302.101562 230.648438 302.375 229.964844 C 309.769531 215.046875 321.140625 203.140625 326.757812 187.269531 C 326.894531 186.855469 327.441406 186.855469 327.578125 187.269531 C 329.085938 194.65625 326.074219 200.953125 322.375 207.246094 C 320.183594 210.804688 318.128906 214.5 315.9375 218.058594 C 315.113281 226.40625 304.019531 245.425781 311.964844 247.753906 C 317.441406 249.394531 323.46875 245.835938 327.441406 242.691406 C 329.359375 239.132812 331.003906 235.4375 332.648438 231.605469 C 336.484375 222.4375 340.59375 212.996094 343.609375 203.550781 C 343.609375 203.414062 343.746094 203.550781 343.746094 203.550781 C 340.320312 215.320312 337.992188 226.953125 333.058594 238.175781 C 332.921875 238.449219 332.785156 238.722656 332.648438 238.996094 C 334.292969 240.5 337.992188 238.722656 340.457031 237.214844 C 343.746094 230.511719 346.484375 223.53125 349.085938 216.550781 C 353.058594 205.332031 357.71875 192.332031 354.15625 180.425781 C 353.882812 179.605469 353.609375 178.921875 353.335938 178.097656 C 352.511719 177.277344 351.417969 176.320312 350.320312 175.636719 C 349.085938 174.816406 347.992188 174.816406 347.304688 175.089844 C 348.949219 180.289062 347.855469 185.351562 346.074219 191.097656 C 346.074219 191.238281 345.800781 191.238281 345.800781 191.097656 C 346.210938 185.898438 346.347656 180.425781 344.292969 175.636719 C 344.15625 175.5 344.15625 175.226562 344.019531 174.953125 C 341.277344 172.488281 335.527344 168.382812 331.414062 171.257812 C 329.636719 172.488281 328.539062 173.992188 327.992188 175.226562 C 328.539062 176.59375 328.949219 177.960938 329.222656 179.332031 C 329.636719 181.382812 326.621094 182.203125 326.074219 180.152344 C 325.664062 178.648438 325.113281 177.277344 324.429688 176.046875 C 323.46875 175.089844 322.238281 174.40625 321.140625 174.269531 C 319.910156 174.128906 318.949219 174.542969 318.265625 175.226562 C 317.992188 187.542969 309.769531 201.636719 298.402344 200.132812 C 297.988281 200.132812 297.714844 199.308594 298.265625 199.308594 C 306.210938 197.53125 311.6875 191.648438 314.019531 183.847656 C 315.796875 177.824219 315.796875 169.339844 311.277344 164.414062 C 307.03125 162.226562 302.375 160.445312 298.265625 159.214844 C 289.496094 156.476562 280.457031 155.65625 271.277344 154.835938 C 271.277344 160.582031 267.988281 165.785156 264.015625 169.75 C 263.605469 170.164062 262.921875 169.613281 263.332031 169.066406 C 266.757812 164.824219 267.988281 159.898438 268.8125 154.699219 C 266.621094 154.425781 264.289062 154.289062 262.097656 154.015625 C 258.949219 153.605469 255.796875 153.195312 252.785156 152.507812 C 252.507812 154.425781 251.414062 156.339844 250.453125 157.984375 C 249.359375 160.035156 247.851562 161.679688 245.933594 162.910156 C 245.796875 163.046875 245.523438 162.773438 245.660156 162.636719 C 246.753906 160.855469 247.851562 158.941406 248.8125 157.023438 C 249.632812 155.382812 249.90625 153.605469 250.589844 152.097656 C 238.125 149.089844 226.753906 142.929688 220.042969 131.296875 C 219.769531 130.75 220.042969 130.339844 220.453125 130.203125 C 219.90625 129.246094 218.945312 127.742188 217.851562 126.507812 C 218.125 126.917969 218.398438 127.46875 218.671875 127.878906 C 218.808594 128.152344 218.398438 128.5625 218.125 128.289062 C 216.890625 126.78125 214.835938 124.183594 212.644531 124.320312 C 212.097656 124.320312 211.273438 124.730469 211 125.277344 C 210.589844 126.097656 211.273438 126.644531 211.6875 127.332031 C 211.960938 127.605469 212.097656 128.015625 212.097656 128.289062 C 213.054688 129.109375 214.015625 129.929688 214.699219 130.886719 C 214.699219 131.023438 214.699219 131.023438 214.5625 131.023438 C 213.46875 130.613281 212.371094 129.929688 211.414062 129.246094 C 210.863281 129.246094 210.316406 128.835938 209.90625 128.425781 C 208.125 127.46875 206.207031 126.78125 204.152344 127.054688 C 203.742188 127.054688 203.464844 127.191406 203.191406 127.332031 C 202.371094 131.023438 202.234375 134.855469 204.015625 136.363281 C 207.988281 139.644531 211.960938 134.71875 218.125 135.675781 C 224.425781 136.636719 218.125 142.246094 217.164062 148.128906 C 216.207031 154.015625 238.535156 174.679688 252.644531 183.300781 C 266.757812 191.785156 289.769531 180.289062 287.167969 186.582031 C 284.566406 192.878906 284.566406 190.550781 292.375 192.46875 C 300.320312 194.382812 283.878906 205.605469 273.605469 207.929688 C 263.46875 210.257812 261.824219 212.171875 269.359375 221.070312 C 276.894531 229.964844 287.714844 233.519531 284.429688 239.816406 C 281.140625 246.109375 257.851562 231.332031 246.894531 235.164062 C 236.207031 238.996094 254.425781 247.480469 251.277344 251.175781 C 261.550781 254.867188 271.414062 259.660156 280.042969 265.269531 C 280.316406 265.40625 280.042969 265.953125 279.769531 265.816406 C 271.277344 260.753906 260.453125 258.015625 250.867188 255.417969 C 248.671875 254.867188 246.480469 254.320312 244.152344 253.773438 C 235.113281 255.691406 220.316406 257.332031 212.644531 261.847656 C 202.097656 268.144531 204.699219 269.375 197.164062 269.375 C 189.628906 269.375 196.207031 279.910156 187.574219 276.902344 C 179.082031 273.890625 170.179688 273.34375 170.863281 279.910156 C 171.546875 286.480469 157.984375 300.984375 151.410156 299.34375 C 144.835938 297.699219 145.519531 289.765625 137.574219 290.175781 C 134.835938 290.3125 132.09375 291.679688 129.628906 293.320312 C 129.492188 293.597656 129.355469 293.871094 129.355469 294.144531 C 127.300781 300.164062 130.449219 306.734375 135.109375 310.566406 C 144.425781 318.363281 157.984375 316.585938 168.261719 312.207031 C 168.535156 312.070312 168.945312 311.933594 169.21875 311.796875 C 168.808594 307.144531 167.847656 302.082031 165.109375 298.25 C 164.835938 297.839844 165.519531 297.425781 165.792969 297.699219 C 168.945312 301.667969 171.410156 305.5 172.371094 310.152344 C 178.945312 306.734375 184.972656 302.492188 190.863281 298.113281 C 190.453125 297.152344 190.316406 296.195312 189.90625 294.964844 C 189.21875 292.773438 188.261719 290.859375 187.164062 288.941406 C 184.699219 284.976562 181.546875 281.144531 177.4375 278.816406 C 177.027344 278.542969 177.4375 277.996094 177.851562 278.132812 C 182.234375 280.046875 186.207031 282.511719 189.082031 286.480469 C 190.726562 288.667969 193.191406 292.636719 193.601562 296.058594 C 197.714844 292.910156 201.824219 289.765625 205.523438 286.34375 C 205.246094 286.070312 204.972656 285.660156 204.972656 285.113281 C 205.246094 281.144531 203.46875 276.765625 200.042969 274.4375 C 199.632812 274.164062 199.90625 273.34375 200.453125 273.617188 C 202.917969 274.4375 204.699219 275.53125 206.207031 277.722656 C 207.441406 279.5 208.125 281.828125 208.261719 284.015625 C 212.097656 280.457031 215.660156 276.492188 218.671875 272.109375 C 218.671875 272.109375 218.808594 272.109375 218.808594 272.109375 C 217.988281 273.617188 217.164062 274.984375 216.34375 276.351562 C 220.453125 271.5625 223.195312 267.730469 224.152344 265.953125 C 224.152344 265.269531 225.25 265.132812 225.386719 265.816406 C 227.167969 276.765625 221.550781 288.257812 217.714844 298.386719 C 213.742188 308.511719 210.042969 320.554688 203.191406 329.039062 C 206.34375 332.050781 208.808594 336.15625 211.136719 338.890625 C 212.234375 340.121094 210.453125 341.902344 209.355469 340.671875 C 206.480469 337.25 203.878906 333.691406 199.632812 331.914062 C 194.015625 329.585938 187.988281 334.101562 186.890625 339.710938 C 184.699219 349.976562 194.5625 356.953125 203.054688 358.871094 C 204.699219 359.28125 205.109375 360.785156 204.699219 362.15625 C 207.300781 362.292969 209.496094 362.566406 211.550781 362.429688 C 211.136719 362.15625 211.136719 361.605469 211.550781 361.332031 Z M 337.992188 155.929688 C 340.320312 154.425781 342.238281 152.371094 344.15625 150.183594 C 334.839844 155.929688 324.019531 159.214844 312.375 159.488281 C 313.195312 159.898438 314.019531 160.445312 314.839844 160.855469 C 314.976562 160.855469 315.113281 160.992188 315.25 160.992188 C 321.003906 163.730469 333.058594 159.214844 337.992188 155.929688 Z M 234.289062 231.332031 C 233.054688 233.109375 231.414062 235.027344 229.632812 236.941406 C 231.414062 235.027344 233.054688 233.109375 234.289062 231.332031 Z M 340.457031 122.402344 C 352.921875 114.878906 353.058594 91.75 345.9375 80.667969 C 345.664062 80.253906 344.839844 80.394531 344.839844 80.941406 C 345.113281 87.78125 345.386719 94.488281 344.292969 101.191406 C 343.195312 108.035156 339.222656 113.78125 338.128906 120.488281 C 337.855469 121.992188 339.222656 123.226562 340.457031 122.402344 Z M 328.539062 136.226562 C 328.8125 136.773438 329.222656 136.910156 329.773438 137.183594 C 330.457031 137.457031 331.277344 137.183594 331.828125 136.636719 C 332.921875 135.402344 334.019531 134.035156 334.839844 132.53125 C 335.25 131.847656 335.664062 131.160156 335.800781 130.476562 C 336.074219 129.65625 335.9375 129.109375 335.9375 128.289062 C 335.9375 128.152344 335.800781 128.015625 335.664062 128.015625 C 334.976562 128.289062 334.566406 128.289062 333.882812 128.5625 C 333.195312 128.972656 332.648438 129.519531 332.101562 129.929688 C 331.003906 131.023438 329.773438 132.257812 328.8125 133.488281 C 328.265625 134.445312 327.992188 135.402344 328.539062 136.226562 Z M 328.539062 136.226562 " fill-opacity="1" fill-rule="nonzero"/><g clip-path="url(#clip-1)"><path fill="rgb(3.138733%, 0.779724%, 14.118958%)" d="M 154.835938 25.929688 C 154.289062 24.011719 155.246094 21.550781 157.847656 21.550781 C 174.972656 21.550781 191.273438 27.433594 205.523438 36.601562 C 212.917969 41.390625 219.496094 47.140625 225.796875 53.296875 C 232.644531 60.003906 237.578125 67.941406 243.878906 75.054688 C 244.015625 75.191406 243.878906 75.464844 243.742188 75.464844 C 243.742188 75.464844 243.605469 75.464844 243.605469 75.464844 C 237.714844 69.171875 230.726562 64.246094 224.289062 58.496094 C 217.988281 53.023438 211.410156 47.960938 204.425781 43.445312 C 190.453125 34.414062 174.699219 28.527344 157.984375 28.390625 C 156.203125 28.253906 155.109375 27.160156 154.835938 25.929688 Z M 71.957031 39.613281 C 72.09375 41.253906 73.875 41.9375 75.105469 40.980469 C 79.492188 37.421875 82.230469 33.042969 87.574219 30.308594 C 93.601562 27.296875 100.3125 25.519531 106.75 23.738281 C 121 19.90625 135.382812 18.402344 148.121094 27.023438 C 148.808594 27.433594 149.628906 26.476562 148.945312 25.929688 C 148.808594 25.792969 148.535156 25.519531 148.398438 25.382812 C 137.027344 14.296875 119.628906 15.390625 105.382812 18.8125 C 96.339844 21.003906 73.460938 25.109375 71.957031 37.421875 C 71.957031 38.109375 71.957031 38.929688 71.957031 39.613281 Z M 13.460938 134.855469 C 4.695312 118.707031 15.242188 96.265625 25.378906 83.128906 C 36.613281 68.761719 52.09375 58.222656 63.738281 44.128906 C 64.011719 43.71875 64.148438 43.308594 64.148438 42.898438 C 64.011719 41.800781 62.640625 41.117188 61.683594 42.078125 C 46.203125 57.539062 26.203125 67.253906 14.28125 86.414062 C 5.515625 100.507812 -3.113281 123.636719 9.625 137.730469 C 11.542969 139.917969 14.832031 137.183594 13.460938 134.855469 Z M 43.050781 226.40625 C 39.351562 220.65625 33.734375 216.6875 29.078125 211.898438 C 23.871094 206.5625 19.078125 200.679688 15.515625 193.972656 C 7.980469 179.46875 11.40625 162.226562 6.472656 147.035156 C 6.472656 146.761719 6.0625 146.898438 6.199219 147.171875 C 8.53125 157.164062 5.515625 166.46875 5.378906 176.457031 C 5.378906 183.710938 6.75 190.824219 9.761719 197.394531 C 12.777344 204.101562 17.433594 210.121094 22.367188 215.59375 C 24.421875 217.785156 26.476562 220.109375 28.667969 222.300781 C 31.953125 225.449219 35.378906 228.320312 39.351562 230.238281 C 41.679688 231.195312 44.695312 228.867188 43.050781 226.40625 Z M 97.164062 263.765625 C 90.585938 265.269531 85.519531 265.679688 78.941406 263.351562 C 71.820312 260.753906 65.105469 257.195312 58.257812 254.046875 C 51.957031 251.175781 43.734375 248.984375 39.078125 243.648438 C 35.652344 239.816406 33.460938 235.027344 30.035156 231.195312 C 29.898438 231.058594 29.898438 231.058594 29.761719 231.058594 C 29.351562 231.058594 28.941406 231.46875 29.214844 231.878906 C 32.914062 237.351562 33.460938 244.46875 38.394531 249.394531 C 44.285156 255.28125 54.011719 258.152344 61.40625 261.710938 C 70.996094 266.363281 89.902344 278.40625 99.628906 268.144531 C 99.902344 267.867188 100.039062 267.59375 100.175781 267.320312 C 100.996094 265.542969 99.355469 263.351562 97.164062 263.765625 Z M 152.230469 284.015625 C 152.371094 284.015625 152.371094 284.015625 152.230469 284.015625 C 154.425781 284.289062 157.300781 281.007812 158.808594 279.636719 C 160.863281 277.859375 164.152344 275.941406 165.65625 273.480469 C 168.261719 273.070312 170.863281 272.660156 173.464844 272.109375 C 184.015625 269.921875 194.5625 266.5 204.015625 261.164062 C 208.808594 258.425781 213.054688 255.144531 217.300781 251.722656 C 218.398438 250.761719 219.632812 249.941406 220.726562 249.121094 C 228.398438 250.902344 236.207031 252.132812 243.878906 253.910156 C 246.070312 254.457031 248.398438 255.003906 250.589844 255.554688 C 260.042969 258.152344 271.003906 260.753906 279.496094 265.953125 C 279.769531 266.089844 280.042969 265.679688 279.769531 265.40625 C 271.140625 259.796875 261.277344 255.003906 251.003906 251.3125 C 243.058594 248.4375 234.835938 246.246094 226.753906 244.878906 C 228.125 243.921875 229.496094 242.828125 230.726562 241.730469 C 232.507812 240.089844 231.277344 237.761719 229.496094 237.214844 C 229.082031 237.078125 228.535156 236.941406 227.988281 237.078125 C 218.945312 238.585938 211.410156 247.617188 204.015625 252.542969 C 195.109375 258.425781 185.109375 262.257812 174.835938 264.722656 C 153.738281 269.785156 129.492188 272.109375 108.121094 267.730469 C 107.300781 267.59375 106.613281 268.144531 106.339844 268.828125 C 106.066406 269.511719 106.203125 270.195312 107.027344 270.605469 C 117.300781 275.804688 129.355469 276.214844 140.726562 275.941406 C 146.203125 275.804688 151.546875 275.53125 157.027344 274.847656 C 156.617188 275.394531 156.203125 275.941406 155.792969 276.492188 C 154.699219 277.996094 152.09375 281.144531 152.09375 283.332031 C 152.09375 283.332031 152.230469 283.742188 152.230469 284.015625 Z M 203.054688 358.871094 C 194.5625 356.953125 184.699219 349.976562 186.890625 339.710938 C 188.125 334.101562 194.152344 329.585938 199.632812 331.914062 C 203.878906 333.691406 206.480469 337.25 209.355469 340.671875 C 210.453125 341.902344 212.234375 340.121094 211.136719 338.890625 C 208.808594 336.15625 206.207031 332.050781 203.191406 329.039062 C 210.042969 320.554688 213.878906 308.511719 217.714844 298.386719 C 221.550781 288.257812 227.167969 276.765625 225.386719 265.816406 C 225.25 265.132812 224.152344 265.269531 224.152344 265.953125 C 224.289062 271.699219 221 278.269531 219.082031 283.605469 C 217.027344 289.214844 214.835938 294.691406 212.507812 300.164062 C 208.671875 308.921875 202.78125 317.40625 199.769531 326.4375 C 198.671875 325.890625 197.4375 325.480469 196.207031 325.34375 C 190.589844 324.796875 183.738281 329.996094 181.546875 335.058594 C 175.792969 348.605469 188.808594 363.796875 202.371094 363.796875 C 203.605469 363.796875 204.289062 362.976562 204.699219 362.15625 C 205.109375 360.785156 204.699219 359.144531 203.054688 358.871094 Z M 218.808594 271.835938 C 215.660156 276.214844 212.097656 280.046875 208.398438 283.742188 C 208.261719 281.554688 207.578125 279.363281 206.34375 277.449219 C 204.835938 275.257812 203.054688 274.300781 200.589844 273.34375 C 200.042969 273.207031 199.769531 273.890625 200.179688 274.164062 C 203.605469 276.492188 205.382812 280.871094 205.109375 284.835938 C 205.109375 285.25 205.382812 285.660156 205.660156 286.070312 C 201.824219 289.492188 197.851562 292.636719 193.742188 295.785156 C 193.328125 292.363281 190.863281 288.394531 189.21875 286.207031 C 186.34375 282.238281 182.371094 279.910156 177.988281 277.859375 C 177.574219 277.722656 177.164062 278.269531 177.574219 278.542969 C 181.683594 281.007812 184.835938 284.699219 187.300781 288.667969 C 188.535156 290.585938 189.355469 292.636719 190.042969 294.691406 C 190.453125 295.921875 190.589844 296.878906 191 297.839844 C 185.109375 302.21875 178.945312 306.460938 172.507812 309.878906 C 171.546875 305.226562 169.082031 301.394531 165.929688 297.425781 C 165.65625 297.015625 164.972656 297.5625 165.246094 297.976562 C 167.847656 301.804688 168.808594 306.734375 169.355469 311.523438 C 169.082031 311.660156 168.671875 311.796875 168.398438 311.933594 C 157.984375 316.449219 144.5625 318.089844 135.246094 310.289062 C 130.585938 306.460938 127.4375 299.890625 129.492188 293.871094 C 129.628906 293.597656 129.765625 293.320312 129.765625 293.046875 C 133.054688 285.386719 142.917969 284.699219 146.753906 292.5 C 147.847656 294.828125 151.683594 293.183594 150.863281 290.722656 C 150.3125 289.078125 149.492188 287.710938 148.535156 286.480469 C 142.644531 279.089844 130.039062 281.144531 125.382812 289.902344 C 118.667969 302.21875 128.808594 315.21875 140.449219 319.1875 C 156.203125 324.523438 171.957031 316.996094 184.835938 308.238281 C 197.714844 299.34375 208.398438 289.078125 216.480469 275.941406 C 217.300781 274.847656 218.125 273.34375 218.808594 271.835938 C 218.945312 271.835938 218.808594 271.835938 218.808594 271.835938 Z M 305.933594 232.835938 C 309.632812 228.320312 312.785156 223.257812 315.9375 218.195312 C 318.128906 214.5 320.320312 210.941406 322.375 207.382812 C 326.074219 201.089844 329.085938 194.929688 327.578125 187.40625 C 327.441406 186.996094 326.894531 186.996094 326.757812 187.40625 C 321.003906 203.140625 309.632812 215.183594 302.375 230.101562 C 302.101562 230.648438 302.101562 231.332031 302.375 232.015625 C 302.921875 233.382812 304.703125 234.34375 305.933594 232.835938 Z M 355.800781 175.226562 C 362.238281 187.816406 357.992188 203.003906 353.746094 215.457031 C 348.949219 229.414062 343.058594 245.152344 333.882812 256.648438 C 326.074219 266.5 314.429688 265.40625 303.332031 262.941406 C 301.824219 262.667969 300.457031 262.257812 298.949219 261.984375 C 298.402344 261.847656 297.851562 261.710938 297.304688 261.574219 C 297.03125 261.4375 296.757812 261.4375 296.484375 261.300781 C 296.484375 261.300781 296.347656 261.164062 296.347656 261.164062 C 293.878906 268.964844 290.730469 276.628906 287.578125 283.878906 C 282.375 296.332031 276.207031 308.375 268.398438 319.460938 C 261.414062 329.3125 252.921875 339.300781 243.058594 347.238281 C 242.917969 347.511719 242.644531 347.921875 242.371094 348.195312 C 242.234375 348.332031 241.824219 348.46875 241.6875 348.332031 C 233.605469 354.492188 224.699219 359.28125 214.972656 361.746094 C 214.425781 361.882812 213.742188 362.019531 213.054688 362.15625 C 212.644531 362.292969 212.371094 362.292969 211.960938 362.429688 C 211.824219 362.429688 211.6875 362.429688 211.550781 362.292969 C 211.136719 362.019531 211.136719 361.46875 211.550781 361.195312 C 221.550781 355.039062 231 348.605469 239.632812 341.355469 C 239.359375 340.808594 239.222656 340.257812 238.808594 339.847656 C 237.167969 336.976562 234.289062 334.101562 231.824219 332.050781 C 231.6875 331.914062 231.824219 331.636719 232.097656 331.773438 C 235.660156 334.238281 238.808594 336.015625 241.277344 339.574219 C 241.277344 339.710938 241.414062 339.710938 241.414062 339.847656 C 247.578125 334.511719 253.332031 328.628906 258.398438 322.058594 C 252.097656 313.4375 243.742188 306.046875 233.878906 301.941406 C 233.332031 301.667969 233.605469 300.847656 234.152344 301.121094 C 244.835938 304.679688 253.878906 310.566406 260.453125 319.460938 C 261.824219 317.542969 263.195312 315.628906 264.5625 313.710938 C 267.304688 309.605469 269.769531 305.5 272.097656 301.121094 C 262.921875 292.226562 251.960938 285.523438 239.359375 282.375 C 238.945312 282.238281 239.085938 281.691406 239.496094 281.691406 C 252.507812 283.195312 264.5625 288.394531 274.015625 297.5625 C 277.441406 291.132812 280.316406 284.425781 283.058594 277.585938 C 287.578125 265.953125 290.320312 253.5 295.660156 242.277344 C 296.070312 241.59375 296.757812 241.183594 297.441406 241.046875 C 298.8125 240.910156 300.457031 241.867188 300.320312 243.511719 C 299.769531 247.890625 298.949219 252.132812 297.714844 256.511719 C 297.988281 256.511719 298.402344 256.511719 298.675781 256.648438 C 303.46875 258.015625 308.8125 259.523438 313.882812 260.207031 C 314.019531 259.796875 314.429688 259.523438 314.976562 259.246094 C 320.183594 257.742188 323.882812 249.53125 326.347656 245.015625 C 326.757812 244.195312 327.167969 243.511719 327.578125 242.691406 C 329.496094 239.132812 331.140625 235.4375 332.785156 231.605469 C 336.621094 222.4375 340.730469 212.996094 343.746094 203.550781 C 343.746094 203.414062 343.882812 203.550781 343.882812 203.550781 C 340.457031 215.320312 338.128906 226.953125 333.195312 238.175781 C 333.058594 238.449219 332.921875 238.722656 332.785156 238.996094 C 330.046875 245.5625 325.9375 255.828125 319.632812 260.34375 C 326.484375 260.070312 330.59375 255.144531 334.019531 249.53125 C 336.347656 245.5625 338.675781 241.457031 340.59375 237.214844 C 343.882812 230.511719 346.621094 223.53125 349.222656 216.550781 C 353.195312 205.332031 357.855469 192.332031 354.292969 180.425781 C 354.019531 179.605469 353.746094 178.921875 353.472656 178.097656 C 351.417969 173.035156 347.71875 168.65625 343.058594 165.648438 C 342.511719 165.234375 341.828125 164.960938 341.277344 164.6875 C 342.921875 166.605469 344.292969 168.792969 345.527344 170.710938 C 346.484375 172.214844 347.03125 173.71875 347.582031 175.089844 C 349.222656 180.289062 348.128906 185.351562 346.347656 191.097656 C 346.347656 191.238281 346.074219 191.238281 346.074219 191.097656 C 346.484375 185.898438 346.621094 180.425781 344.566406 175.636719 C 344.429688 175.5 344.429688 175.226562 344.292969 174.953125 C 342.238281 170.710938 337.855469 163.867188 332.785156 163.046875 C 329.496094 164.414062 325.800781 165.648438 322.101562 166.058594 C 324.703125 168.65625 326.894531 171.804688 328.265625 175.226562 C 328.8125 176.59375 329.222656 177.960938 329.496094 179.332031 C 329.910156 181.382812 326.894531 182.203125 326.347656 180.152344 C 325.9375 178.648438 325.386719 177.277344 324.703125 176.046875 C 323.058594 173.035156 320.59375 170.4375 317.714844 168.246094 C 318.265625 170.4375 318.539062 172.761719 318.539062 175.089844 C 318.265625 187.40625 310.046875 201.5 298.675781 199.996094 C 298.265625 199.996094 297.988281 199.171875 298.539062 199.171875 C 306.484375 197.394531 311.964844 191.511719 314.292969 183.710938 C 316.074219 177.6875 316.074219 169.203125 311.550781 164.277344 C 307.304688 162.089844 302.648438 160.308594 298.539062 159.078125 C 289.769531 156.339844 280.730469 155.519531 271.550781 154.699219 C 271.550781 160.445312 268.261719 165.648438 264.289062 169.613281 C 263.878906 170.027344 263.195312 169.476562 263.605469 168.929688 C 267.03125 164.6875 268.261719 159.761719 269.085938 154.5625 C 266.894531 154.289062 264.5625 154.152344 262.371094 153.878906 C 259.222656 153.46875 256.070312 153.058594 253.058594 152.371094 C 252.785156 154.289062 251.6875 156.203125 250.726562 157.847656 C 249.632812 159.898438 248.125 161.542969 246.207031 162.773438 C 246.070312 162.910156 245.796875 162.636719 245.933594 162.5 C 247.03125 160.71875 248.125 158.804688 249.085938 156.886719 C 249.90625 155.246094 250.179688 153.46875 250.867188 151.960938 C 238.398438 148.953125 227.027344 142.792969 220.316406 131.160156 C 220.042969 130.613281 220.316406 130.203125 220.726562 130.066406 C 221 129.929688 221.277344 130.066406 221.550781 130.339844 C 230.863281 144.847656 247.851562 147.855469 264.425781 149.363281 C 263.605469 139.644531 262.371094 130.066406 260.316406 120.625 C 258.535156 115.425781 257.167969 109.949219 256.207031 105.160156 C 255.386719 102.5625 254.425781 100.097656 253.46875 97.5 C 251.277344 91.886719 247.578125 86.140625 246.617188 80.117188 C 246.617188 79.980469 246.753906 79.980469 246.753906 79.980469 C 247.03125 80.253906 247.304688 80.394531 247.578125 80.667969 C 247.988281 81.078125 248.398438 81.351562 248.808594 81.761719 C 255.113281 53.296875 280.730469 31.8125 311.140625 31.8125 C 346.347656 31.8125 374.980469 60.414062 374.980469 95.582031 C 374.980469 116.382812 364.976562 134.855469 349.5 146.488281 C 347.304688 152.097656 343.882812 156.886719 338.8125 160.171875 C 345.800781 162.773438 352.648438 169.203125 355.800781 175.226562 Z M 263.46875 112.414062 C 264.703125 116.246094 265.933594 120.214844 267.304688 124.046875 C 270.316406 132.667969 277.304688 138.6875 285.25 143.066406 C 286.347656 143.613281 285.523438 145.394531 284.429688 144.984375 C 279.769531 143.476562 274.976562 141.289062 271.003906 138.140625 C 271.550781 138.960938 272.234375 139.78125 272.785156 140.605469 C 273.46875 141.425781 274.425781 142.519531 275.25 143.75 C 280.867188 147.855469 287.167969 151.140625 294.015625 153.058594 C 294.15625 153.058594 294.292969 153.058594 294.292969 153.195312 C 295.523438 153.46875 296.621094 153.742188 297.851562 154.152344 C 301.960938 155.109375 306.347656 155.519531 310.730469 155.519531 C 343.609375 155.519531 370.457031 128.699219 370.457031 95.855469 C 370.457031 95.308594 370.457031 94.761719 370.457031 94.214844 C 366.757812 85.320312 359.363281 78.75 351.417969 73.550781 C 343.746094 68.488281 335.523438 63.699219 326.757812 60.6875 C 326.347656 60.550781 325.9375 60.414062 325.523438 60.277344 C 306.894531 54.253906 285.523438 54.117188 266.070312 56.308594 C 258.675781 64.519531 253.605469 74.917969 251.6875 86.277344 C 252.644531 87.644531 253.46875 89.152344 254.152344 90.65625 C 254.152344 90.109375 254.289062 89.425781 254.289062 88.875 C 255.386719 81.488281 259.632812 76.289062 263.878906 70.539062 C 264.289062 69.992188 265.25 70.402344 264.839844 71.085938 C 262.371094 76.152344 259.90625 82.035156 258.949219 87.507812 C 258.261719 91.75 258.949219 95.71875 259.90625 99.824219 C 260.042969 99.277344 260.042969 98.867188 260.179688 98.320312 C 260.316406 97.910156 260.867188 98.046875 260.867188 98.457031 C 261.550781 103.109375 262.371094 107.761719 263.46875 112.414062 Z M 268.398438 53.980469 C 278.539062 51.519531 289.359375 51.519531 299.769531 51.792969 C 311.003906 52.066406 322.238281 53.570312 332.648438 57.949219 C 345.664062 63.285156 361.003906 71.632812 369.363281 83.949219 C 368.949219 82.171875 368.539062 80.53125 367.992188 78.75 C 364.839844 74.78125 362.648438 70.265625 358.8125 66.84375 C 354.15625 62.738281 348.402344 59.730469 342.785156 56.992188 C 342.375 56.855469 342.648438 56.171875 343.058594 56.308594 C 349.636719 58.769531 357.308594 61.917969 362.921875 66.84375 C 352.648438 48.644531 333.195312 36.191406 310.730469 36.191406 C 298.539062 36.191406 287.167969 39.886719 277.578125 46.179688 C 279.085938 46.042969 280.730469 45.90625 281.960938 45.769531 C 287.714844 45.085938 293.195312 44.949219 298.675781 47.140625 C 299.222656 47.414062 298.949219 48.097656 298.402344 47.960938 C 290.59375 45.085938 277.988281 48.234375 270.59375 51.519531 C 270.042969 52.476562 269.222656 53.160156 268.398438 53.980469 Z M 315.113281 161.128906 C 321.003906 163.867188 332.921875 159.214844 337.992188 155.929688 C 340.320312 154.425781 342.238281 152.371094 344.15625 150.183594 C 334.839844 155.929688 324.019531 159.214844 312.375 159.488281 C 313.195312 159.898438 314.019531 160.445312 314.839844 160.855469 C 314.976562 160.992188 314.976562 160.992188 315.113281 161.128906 Z M 349.636719 133.625 C 362.375 120.488281 360.183594 100.097656 357.03125 83.949219 C 356.894531 83.539062 356.347656 83.675781 356.347656 84.085938 C 356.894531 92.023438 356.210938 100.917969 355.113281 108.71875 C 353.882812 117.203125 350.320312 123.773438 346.757812 131.433594 C 345.664062 133.214844 347.992188 135.265625 349.636719 133.625 Z M 337.582031 144.847656 C 339.359375 144.847656 341.003906 142.929688 342.101562 141.699219 C 343.332031 140.195312 344.15625 138.550781 344.976562 136.773438 C 345.113281 136.5 344.839844 136.363281 344.703125 136.5 C 343.472656 137.730469 341.828125 138.6875 340.457031 139.644531 C 339.773438 140.058594 339.222656 140.605469 338.539062 140.878906 C 337.71875 141.425781 336.894531 141.699219 336.484375 142.519531 C 335.9375 143.613281 336.484375 144.710938 337.582031 144.847656 Z M 215.246094 123.363281 C 213.878906 122.402344 212.097656 121.992188 210.589844 122.949219 C 209.355469 123.636719 208.535156 125.003906 208.808594 126.371094 C 203.878906 124.320312 198.125 125.140625 196.753906 131.710938 C 195.933594 135.539062 196.617188 140.332031 198.398438 143.75 C 200.589844 147.992188 204.289062 149.226562 208.261719 150.867188 C 208.398438 151.003906 208.535156 151.003906 208.671875 151.003906 C 209.355469 154.5625 211.6875 157.574219 214.425781 160.035156 C 216.070312 162.910156 217.851562 165.648438 219.769531 168.246094 C 223.878906 173.582031 228.398438 178.648438 233.195312 183.4375 C 237.441406 187.679688 242.644531 193.152344 248.398438 197.394531 C 245.25 202.59375 243.605469 209.027344 241.140625 214.5 C 238.808594 219.835938 235.660156 224.898438 234.015625 230.511719 C 234.015625 230.648438 234.015625 230.921875 234.152344 231.058594 C 234.425781 231.46875 234.835938 231.742188 235.25 231.332031 C 237.441406 229.691406 239.359375 227.773438 241.140625 225.585938 C 253.742188 225.859375 267.304688 230.375 278.261719 236.394531 C 278.539062 236.53125 278.675781 236.121094 278.539062 235.984375 C 271.824219 231.605469 265.113281 227.910156 257.578125 225.171875 C 254.015625 223.941406 248.808594 221.753906 244.152344 221.617188 C 245.25 219.972656 246.34375 218.195312 247.304688 216.550781 C 248.949219 213.816406 250.589844 210.804688 251.960938 207.65625 C 252.097656 207.792969 252.234375 207.929688 252.371094 207.929688 C 254.289062 209.574219 256.617188 210.257812 258.949219 211.078125 C 259.496094 211.214844 259.769531 210.53125 259.359375 210.257812 C 257.578125 208.890625 256.480469 206.972656 255.660156 204.921875 C 255.25 203.960938 254.976562 202.867188 254.5625 202.046875 C 262.648438 208.066406 277.851562 202.59375 284.566406 197.53125 C 285.113281 197.121094 284.839844 196.027344 284.015625 196.300781 C 279.222656 197.941406 273.742188 199.308594 268.675781 199.445312 C 268.398438 199.308594 268.125 199.171875 267.714844 199.035156 C 271.140625 198.214844 274.015625 196.710938 274.976562 194.109375 C 274.976562 193.972656 274.839844 193.835938 274.703125 193.835938 C 268.949219 197.394531 263.46875 196.027344 257.441406 195.066406 C 249.085938 190.277344 241.550781 182.203125 235.386719 176.320312 C 227.578125 168.792969 219.082031 160.71875 212.371094 152.097656 C 210.316406 147.171875 212.097656 140.742188 217.164062 138.550781 C 217.578125 138.414062 217.304688 137.59375 216.753906 137.730469 C 212.644531 139.097656 209.21875 142.929688 208.671875 147.308594 C 208.535156 147.035156 208.398438 146.898438 208.261719 146.625 C 207.164062 144.710938 206.890625 143.203125 208.398438 141.425781 C 208.535156 141.152344 208.261719 141.015625 208.125 141.152344 C 206.207031 142.65625 205.382812 144.160156 205.933594 146.625 C 204.699219 146.078125 203.464844 145.394531 202.371094 144.4375 C 200.042969 142.246094 199.082031 138.6875 198.671875 135.675781 C 198.261719 131.984375 198.945312 128.015625 202.917969 126.917969 C 203.191406 126.78125 203.605469 126.78125 203.878906 126.644531 C 205.933594 126.371094 207.851562 127.054688 209.632812 128.015625 C 210.042969 128.5625 210.589844 128.835938 211.136719 128.835938 C 212.234375 129.519531 213.191406 130.066406 214.289062 130.613281 C 214.425781 130.613281 214.5625 130.613281 214.425781 130.476562 C 213.742188 129.519531 212.917969 128.5625 211.824219 127.878906 C 211.824219 127.605469 211.6875 127.191406 211.414062 126.917969 C 211 126.371094 210.316406 125.6875 210.726562 124.867188 C 211 124.320312 211.6875 124.046875 212.371094 123.910156 C 214.5625 123.773438 216.617188 126.371094 217.851562 127.878906 C 218.125 128.152344 218.535156 127.742188 218.398438 127.46875 C 218.125 127.054688 217.851562 126.507812 217.578125 126.097656 C 217.027344 125.277344 216.480469 124.183594 215.246094 123.363281 Z M 106.476562 75.191406 C 104.558594 69.171875 100.585938 65.339844 94.832031 63.285156 C 87.4375 60.550781 78.394531 57.675781 70.722656 60.414062 C 70.3125 60.550781 70.3125 61.234375 70.722656 61.234375 C 71.820312 61.371094 72.914062 61.507812 74.011719 61.644531 C 83.875 62.738281 96.75 63.972656 101.410156 73.140625 C 104.421875 79.160156 104.011719 86.824219 100.859375 92.570312 C 97.847656 97.910156 92.914062 100.644531 87.984375 103.792969 C 87.023438 104.476562 87.300781 106.394531 88.667969 106.257812 C 89.214844 106.257812 89.628906 106.121094 90.039062 106.121094 C 103.328125 103.929688 110.175781 87.234375 106.476562 75.191406 Z M 36.75 102.425781 C 35.105469 96.8125 35.242188 90.929688 37.023438 85.730469 C 38.667969 80.804688 41.542969 76.425781 45.652344 72.867188 C 45.789062 72.730469 45.652344 72.457031 45.378906 72.59375 C 32.640625 79.160156 27.84375 93.257812 32.640625 106.804688 C 37.296875 119.804688 54.011719 122.539062 65.105469 116.382812 C 66.203125 115.835938 66.066406 114.191406 65.242188 113.644531 C 64.96875 113.371094 64.695312 113.371094 64.285156 113.371094 C 53.324219 113.917969 40.859375 115.835938 36.75 102.425781 Z M 75.929688 110.363281 C 74.832031 109.675781 73.601562 110.085938 72.503906 110.5 C 71.957031 110.636719 71.40625 110.773438 70.996094 111.046875 C 70.449219 111.320312 70.039062 111.730469 69.488281 112.140625 C 69.214844 112.277344 69.078125 112.550781 69.078125 112.6875 C 69.078125 113.097656 69.351562 113.371094 69.765625 113.507812 C 70.3125 113.507812 70.722656 113.78125 71.269531 113.78125 C 71.820312 113.917969 72.503906 113.78125 73.050781 113.78125 C 73.601562 113.78125 74.148438 113.644531 74.832031 113.507812 C 75.65625 113.371094 76.066406 113.097656 76.476562 112.414062 C 76.886719 112.003906 76.75 111.320312 76.339844 110.773438 C 76.203125 110.636719 76.066406 110.5 75.929688 110.363281 Z M 112.230469 74.78125 C 115.382812 82.308594 114.011719 89.972656 115.65625 97.636719 C 115.792969 98.59375 117.300781 98.457031 117.4375 97.636719 C 119.492188 89.289062 118.121094 77.929688 113.601562 70.539062 C 108.667969 62.601562 99.902344 59.183594 90.996094 57.949219 C 90.996094 57.949219 90.859375 58.085938 90.996094 58.085938 C 100.175781 60.140625 108.394531 65.75 112.230469 74.78125 Z M 45.789062 131.433594 C 45.515625 126.234375 40.039062 125.140625 36.339844 122.539062 C 28.667969 117.203125 25.378906 107.488281 27.296875 98.457031 C 27.296875 98.320312 27.160156 98.183594 27.023438 98.320312 C 24.832031 104.476562 24.96875 111.320312 27.84375 117.339844 C 31.132812 124.183594 37.84375 127.742188 43.324219 132.53125 C 44.148438 133.214844 45.789062 132.667969 45.789062 131.433594 Z M 143.464844 72.867188 C 149.21875 79.433594 158.398438 82.308594 167.027344 80.394531 C 173.601562 79.023438 181.960938 74.097656 183.601562 67.117188 C 185.246094 59.730469 179.765625 51.519531 173.875 47.6875 C 166.207031 42.761719 157.710938 43.992188 150.453125 48.78125 C 149.902344 49.054688 150.453125 49.738281 150.863281 49.601562 C 153.191406 48.507812 155.792969 47.960938 158.398438 47.960938 C 162.371094 47.824219 166.480469 48.644531 169.765625 50.699219 C 175.382812 54.117188 181.136719 62.054688 176.890625 68.761719 C 170.179688 79.296875 154.699219 75.738281 146.890625 69.445312 C 146.753906 69.308594 146.617188 69.171875 146.480469 69.171875 C 144.148438 67.804688 141.410156 70.675781 143.464844 72.867188 Z M 143.875 68.625 C 144.835938 68.078125 145.109375 66.84375 144.5625 65.886719 C 144.285156 65.339844 144.148438 64.792969 143.875 64.109375 C 143.601562 63.285156 143.191406 62.328125 142.230469 62.328125 C 140.863281 62.328125 140.3125 63.699219 140.3125 64.792969 C 140.3125 65.886719 140.589844 66.980469 141.273438 67.804688 C 141.820312 68.898438 142.917969 69.308594 143.875 68.625 Z M 159.765625 89.5625 C 160.726562 89.425781 160.863281 87.917969 160.039062 87.507812 C 156.480469 85.730469 152.507812 84.773438 148.945312 82.71875 C 145.382812 80.53125 141.683594 77.65625 139.082031 74.371094 C 138.945312 74.234375 138.808594 74.371094 138.808594 74.507812 C 141.957031 82.71875 150.453125 91.203125 159.765625 89.5625 Z M 187.300781 63.972656 C 187.710938 67.804688 187.164062 71.910156 185.519531 75.328125 C 185.246094 75.738281 185.933594 76.425781 186.34375 75.875 C 192.097656 69.035156 192.097656 59.867188 187.4375 52.339844 C 186.480469 50.835938 184.289062 51.792969 184.5625 53.570312 C 185.246094 57.128906 186.890625 60.277344 187.300781 63.972656 Z M 80.859375 220.519531 C 87.023438 207.929688 75.378906 197.53125 63.324219 197.941406 C 63.050781 197.941406 62.914062 198.351562 63.1875 198.488281 C 63.738281 198.625 64.285156 198.761719 64.832031 198.898438 C 73.1875 201.089844 81.957031 207.929688 78.394531 217.375 C 75.519531 225.171875 66.339844 231.46875 59.765625 224.898438 C 59.488281 224.625 59.078125 224.214844 58.804688 223.804688 C 57.847656 222.574219 55.929688 223.941406 56.203125 225.3125 C 57.570312 230.238281 63.050781 232.289062 67.847656 231.46875 C 73.601562 230.375 78.394531 225.585938 80.859375 220.519531 Z M 56.613281 201.5 C 54.011719 202.457031 52.09375 203.277344 50.585938 205.878906 C 49.351562 207.792969 47.984375 211.351562 49.488281 213.40625 C 50.3125 214.636719 51.820312 214.363281 52.367188 212.996094 C 53.050781 211.214844 52.503906 209.300781 53.1875 207.382812 C 53.875 205.605469 55.378906 203.414062 56.886719 202.320312 C 57.570312 202.183594 57.160156 201.363281 56.613281 201.5 Z M 52.914062 215.730469 C 51.957031 214.773438 50.585938 215.730469 50.859375 216.964844 C 50.996094 217.511719 51.132812 218.058594 51.269531 218.605469 C 51.542969 219.152344 52.09375 219.835938 52.777344 219.699219 C 53.1875 219.699219 53.597656 219.5625 53.875 219.289062 C 54.285156 218.742188 54.558594 217.921875 54.148438 217.375 C 53.734375 216.828125 53.324219 216.277344 52.914062 215.730469 Z M 78.394531 197.257812 C 78.667969 197.394531 79.078125 196.984375 78.804688 196.710938 C 71.132812 188.089844 43.324219 187.679688 43.1875 202.867188 C 43.1875 203.824219 44.421875 204.375 45.105469 203.6875 C 49.902344 197.941406 54.011719 194.929688 61.683594 194.519531 C 67.710938 194.109375 73.050781 194.246094 78.394531 197.257812 Z M 43.871094 208.066406 C 43.597656 209.164062 42.777344 209.984375 42.503906 211.078125 C 42.230469 212.171875 41.957031 213.542969 42.914062 214.363281 C 43.460938 214.910156 44.148438 214.910156 44.832031 214.636719 C 46.066406 214.089844 46.066406 212.722656 46.066406 211.625 C 46.066406 210.53125 45.652344 209.574219 45.652344 208.480469 C 45.789062 207.109375 44.148438 206.972656 43.871094 208.066406 Z M 85.65625 217.375 C 84.285156 222.164062 82.09375 227.5 78.804688 231.332031 C 75.792969 235.027344 72.230469 236.121094 67.847656 237.351562 C 66.613281 237.761719 66.339844 239.816406 67.847656 240.089844 C 72.503906 240.910156 77.296875 237.761719 80.175781 234.34375 C 84.421875 229.414062 85.105469 223.53125 86.203125 217.375 C 86.203125 217.238281 85.792969 217.101562 85.65625 217.375 Z M 134.285156 171.53125 C 137.847656 173.71875 137.847656 177.550781 137.300781 181.382812 C 135.929688 190.140625 128.671875 190.960938 121.136719 190.414062 C 121 190.414062 120.722656 190.414062 120.585938 190.414062 C 118.53125 190.824219 118.808594 194.246094 121.136719 194.382812 C 126.203125 194.65625 131.957031 194.792969 136.066406 191.511719 C 140.175781 188.226562 141.410156 182.476562 141.136719 177.414062 C 140.726562 169.203125 129.082031 162.089844 122.367188 168.109375 C 121.546875 168.929688 122.640625 170.4375 123.601562 169.75 C 124.011719 169.476562 124.421875 169.203125 124.835938 169.066406 C 127.847656 168.246094 131.957031 170.027344 134.285156 171.53125 Z M 114.285156 174.542969 C 112.367188 177.824219 110.039062 183.027344 112.09375 186.71875 C 112.640625 187.679688 114.148438 187.542969 114.421875 186.445312 C 114.832031 184.667969 114.421875 182.890625 114.285156 181.109375 C 114.148438 179.058594 114.285156 176.867188 114.695312 174.816406 C 114.832031 174.40625 114.421875 174.269531 114.285156 174.542969 Z M 51.40625 160.992188 C 47.707031 162.5 45.929688 167.289062 46.476562 171.121094 C 47.023438 174.679688 50.3125 179.46875 54.148438 180.015625 C 61.820312 181.246094 70.585938 172.761719 65.378906 165.371094 C 65.242188 165.234375 64.96875 165.371094 65.105469 165.507812 C 66.339844 167.835938 66.066406 170.4375 64.558594 172.351562 C 63.875 173.171875 63.1875 173.855469 62.09375 174.40625 C 60.449219 175.226562 57.023438 176.457031 55.105469 175.910156 C 52.914062 175.226562 50.996094 171.804688 50.996094 169.613281 C 50.996094 168.65625 51.269531 167.972656 51.679688 167.289062 C 52.09375 166.46875 52.777344 165.785156 53.460938 165.097656 C 53.734375 164.960938 53.875 164.6875 54.148438 164.550781 C 56.203125 162.636719 53.597656 160.171875 51.40625 160.992188 Z M 190.179688 183.4375 C 194.699219 189.730469 215.109375 195.480469 217.164062 184.53125 C 217.300781 183.847656 217.027344 183.300781 216.617188 182.890625 C 216.207031 182.476562 215.523438 182.339844 214.835938 182.753906 C 207.988281 186.308594 199.21875 186.855469 193.464844 180.835938 C 188.125 175.226562 188.125 165.097656 192.507812 158.394531 C 194.015625 156.066406 196.070312 154.152344 198.535156 152.921875 C 198.808594 152.78125 198.671875 152.371094 198.261719 152.371094 C 186.34375 155.382812 183.738281 174.40625 190.179688 183.4375 Z M 184.835938 157.710938 C 185.109375 157.574219 184.835938 157.164062 184.5625 157.300781 C 173.191406 162.226562 172.644531 181.792969 181.546875 189.183594 C 182.78125 190.277344 184.835938 188.910156 183.878906 187.40625 C 179.082031 179.058594 172.78125 163.730469 184.835938 157.710938 Z M 209.496094 195.753906 C 204.015625 197.941406 197.4375 194.929688 192.234375 193.015625 C 191.546875 192.742188 191.273438 193.699219 191.824219 193.972656 C 195.796875 196.847656 207.027344 204.101562 210.863281 197.394531 C 211.136719 196.710938 210.453125 195.480469 209.496094 195.753906 Z M 170.316406 234.070312 C 162.78125 237.078125 150.039062 246.933594 156.753906 256.238281 C 157.164062 256.785156 157.984375 257.058594 158.671875 256.921875 C 159.492188 256.785156 160.039062 256.238281 160.039062 255.28125 C 158.121094 236.53125 182.371094 232.5625 197.851562 236.941406 C 200.453125 237.761719 202.917969 238.722656 204.835938 239.953125 C 205.109375 240.089844 205.382812 239.679688 205.109375 239.542969 C 194.835938 232.015625 182.371094 229.277344 170.316406 234.070312 Z M 175.109375 225.171875 C 173.601562 225.996094 174.699219 228.046875 176.207031 227.773438 C 182.644531 226.542969 188.398438 225.3125 194.972656 227.226562 C 200.589844 228.867188 205.246094 232.289062 209.90625 235.847656 C 210.042969 235.984375 210.179688 235.710938 210.042969 235.574219 C 201.824219 225.449219 187.851562 217.785156 175.109375 225.171875 Z M 157.710938 236.394531 C 159.492188 235.574219 161 233.933594 162.78125 232.835938 C 164.425781 231.742188 166.207031 230.785156 168.125 229.964844 C 168.535156 229.828125 168.261719 229.277344 167.984375 229.277344 C 165.65625 229.140625 163.601562 229.414062 161.410156 230.375 C 159.492188 231.195312 156.890625 232.699219 156.066406 234.617188 C 155.382812 235.847656 156.480469 236.941406 157.710938 236.394531 Z M 138.945312 226.816406 C 138.257812 226.679688 137.710938 227.773438 138.394531 228.046875 C 139.492188 228.59375 140.3125 229.277344 140.863281 230.101562 C 143.328125 233.109375 142.644531 238.035156 140.449219 241.320312 C 139.21875 243.101562 137.300781 244.742188 135.246094 245.289062 C 132.644531 245.972656 131 244.878906 128.945312 243.785156 C 128.671875 243.648438 128.394531 243.511719 128.121094 243.375 C 126.613281 242.691406 124.972656 244.195312 125.792969 245.699219 C 129.355469 252.132812 139.082031 248.574219 142.644531 243.921875 C 147.027344 238.3125 147.300781 228.320312 138.945312 226.816406 Z M 130.175781 229.828125 C 130.585938 229.691406 130.3125 229.140625 129.902344 229.140625 C 127.574219 229.554688 125.519531 230.238281 124.148438 232.289062 C 123.054688 233.933594 121.683594 236.804688 123.191406 238.449219 C 123.601562 238.859375 124.285156 238.859375 124.695312 238.449219 C 125.792969 237.214844 125.519531 235.300781 126.339844 233.792969 C 127.300781 232.289062 128.394531 230.648438 130.175781 229.828125 Z M 143.738281 223.667969 C 143.191406 223.667969 143.054688 224.488281 143.601562 224.625 C 145.382812 225.035156 146.203125 226.269531 147.027344 227.773438 C 147.300781 228.320312 147.574219 229.003906 147.847656 229.691406 C 148.121094 230.375 148.121094 231.058594 148.535156 231.605469 C 148.808594 231.878906 149.082031 232.015625 149.492188 231.878906 C 151.273438 230.648438 150.453125 227.5 149.492188 226.132812 C 148.121094 224.351562 145.792969 223.667969 143.738281 223.667969 Z M 143.738281 223.667969 " fill-opacity="1" fill-rule="nonzero"/></g></svg>